<?xml version="1.0" encoding="UTF-8" standalone="no"?>
<!DOCTYPE svg PUBLIC "-//W3C//DTD SVG 1.1//EN" "http://www.w3.org/Graphics/SVG/1.1/DTD/svg11.dtd">
<svg width="100%" height="100%" viewBox="0 0 873 130" version="1.1" xmlns="http://www.w3.org/2000/svg" xmlns:xlink="http://www.w3.org/1999/xlink" xml:space="preserve" xmlns:serif="http://www.serif.com/" style="fill-rule:evenodd;clip-rule:evenodd;stroke-linejoin:round;stroke-miterlimit:1.41421;">
    <g transform="matrix(0.999771,0,0,0.992834,-54.9866,61.76)">
        <g transform="matrix(1,0,0,1,68.29,47.697)">
            <path d="M39.734,-31.433L28.137,-31.433L28.137,0L6.714,0L6.714,-88.867L41.687,-88.867C52.226,-88.867 60.465,-86.53 66.406,-81.856C72.347,-77.181 75.317,-70.576 75.317,-62.04C75.317,-55.862 74.066,-50.74 71.564,-46.676C69.061,-42.611 65.145,-39.319 59.814,-36.798L78.369,-0.916L78.369,0L55.42,0L39.734,-31.433ZM28.137,-47.913L41.687,-47.913C45.756,-47.913 48.818,-48.983 50.873,-51.125C52.928,-53.267 53.955,-56.255 53.955,-60.089C53.955,-63.924 52.917,-66.932 50.842,-69.114C48.767,-71.297 45.715,-72.388 41.687,-72.388L28.137,-72.388L28.137,-47.913Z" style="fill:white;fill-rule:nonzero;"/>
            <path d="M163.513,-42.603C163.513,-33.936 161.906,-26.265 158.691,-19.592C155.477,-12.919 150.909,-7.782 144.989,-4.181C139.069,-0.58 132.324,1.221 124.756,1.221C117.188,1.221 110.474,-0.519 104.614,-3.998C98.755,-7.477 94.187,-12.451 90.912,-18.921C87.636,-25.391 85.917,-32.817 85.754,-41.199L85.754,-46.204C85.754,-54.911 87.351,-62.592 90.546,-69.244C93.74,-75.897 98.317,-81.034 104.279,-84.656C110.24,-88.277 117.025,-90.088 124.634,-90.088C132.161,-90.088 138.875,-88.298 144.775,-84.717C150.675,-81.136 155.263,-76.04 158.539,-69.427C161.814,-62.815 163.472,-55.237 163.513,-46.692L163.513,-42.603ZM141.724,-46.326C141.724,-55.155 140.249,-61.859 137.299,-66.437C134.349,-71.014 130.127,-73.303 124.634,-73.303C113.892,-73.303 108.215,-65.247 107.605,-49.133L107.544,-42.603C107.544,-33.895 108.988,-27.201 111.877,-22.522C114.766,-17.843 119.059,-15.503 124.756,-15.503C130.168,-15.503 134.338,-17.802 137.268,-22.4C140.198,-26.998 141.683,-33.61 141.724,-42.236L141.724,-46.326Z" style="fill:white;fill-rule:nonzero;"/>
            <path d="M204.773,-33.081L195.984,-23.438L195.984,0L174.561,0L174.561,-88.867L195.984,-88.867L195.984,-49.683L203.43,-60.974L222.595,-88.867L249.084,-88.867L219.055,-49.561L249.084,0L223.694,0L204.773,-33.081Z" style="fill:white;fill-rule:nonzero;"/>
            <path d="M284.729,-33.081L275.94,-23.438L275.94,0L254.517,0L254.517,-88.867L275.94,-88.867L275.94,-49.683L283.386,-60.974L302.551,-88.867L329.041,-88.867L299.011,-49.561L329.041,0L303.65,0L284.729,-33.081Z" style="fill:white;fill-rule:nonzero;"/>
            <path d="M389.587,-37.72L355.896,-37.72L355.896,-16.479L395.691,-16.479L395.691,0L334.473,0L334.473,-88.867L395.813,-88.867L395.813,-72.327L355.896,-72.327L355.896,-53.589L389.587,-53.589L389.587,-37.72Z" style="fill:white;fill-rule:nonzero;"/>
            <path d="M475.403,-72.327L448.73,-72.327L448.73,0L427.307,0L427.307,-72.327L401.123,-72.327L401.123,-88.867L475.403,-88.867L475.403,-72.327Z" style="fill:white;fill-rule:nonzero;"/>
        </g>
        <g transform="matrix(1,0,0,1,546.012,47.697)">
            <path d="M61.584,-27.649C60.771,-31.352 58.634,-34.434 55.176,-36.896C51.717,-39.358 46.366,-41.677 39.124,-43.854C31.881,-46.031 26.53,-48.228 23.071,-50.446C19.613,-52.663 17.181,-55.278 15.778,-58.289C14.374,-61.3 13.997,-64.657 14.648,-68.359C15.34,-72.713 17.192,-76.528 20.203,-79.803C23.214,-83.079 27.069,-85.612 31.769,-87.402C36.469,-89.193 41.463,-90.088 46.753,-90.088C52.002,-90.088 56.651,-88.949 60.699,-86.67C64.748,-84.391 67.698,-81.258 69.55,-77.271C71.401,-73.283 72.001,-68.807 71.35,-63.843L68.054,-63.843C69.071,-70.475 67.566,-75.958 63.538,-80.292C59.509,-84.625 53.935,-86.792 46.814,-86.792C40.181,-86.792 34.18,-85.297 28.809,-82.306C23.438,-79.315 19.999,-75.338 18.494,-70.374C17.598,-67.403 17.436,-64.738 18.005,-62.378C18.819,-58.757 21.047,-55.756 24.689,-53.375C28.33,-50.995 33.366,-48.889 39.795,-47.058C49.723,-44.25 56.641,-40.771 60.547,-36.621C64.453,-32.471 65.898,-27.405 64.88,-21.423C64.189,-16.907 62.307,-12.95 59.235,-9.552C56.163,-6.154 52.205,-3.51 47.363,-1.617C42.521,0.275 37.394,1.221 31.982,1.221C22.705,1.221 15.503,-1.18 10.376,-5.981C5.249,-10.783 3.235,-17.151 4.333,-25.085L7.629,-25.085C6.612,-18.087 8.341,-12.502 12.817,-8.331C17.293,-4.161 23.661,-2.075 31.921,-2.075C38.554,-2.075 44.556,-3.55 49.927,-6.5C55.298,-9.45 58.879,-13.387 60.669,-18.311C61.89,-21.688 62.195,-24.801 61.584,-27.649Z" style="fill:rgb(255,51,102);fill-rule:nonzero;"/>
            <path d="M87.585,-37.537L81.116,0L77.82,0L93.201,-88.867L119.873,-88.867C128.133,-88.786 134.46,-86.405 138.855,-81.726C143.25,-77.047 144.816,-70.78 143.555,-62.927C142.253,-55.074 138.713,-48.879 132.935,-44.342C127.157,-39.805 119.731,-37.537 110.657,-37.537L87.585,-37.537ZM88.135,-40.833L110.718,-40.833C118.449,-40.833 124.969,-42.765 130.28,-46.631C135.59,-50.496 138.916,-55.888 140.259,-62.805C141.479,-69.6 140.259,-75.053 136.597,-79.163C132.935,-83.272 127.38,-85.409 119.934,-85.571L95.947,-85.571L88.135,-40.833Z" style="fill:rgb(255,51,102);fill-rule:nonzero;"/>
            <path d="M192.932,-26.55L150.818,-26.55L136.597,0L132.935,0L180.42,-88.806L184.387,-88.867L201.477,0L197.998,0L192.932,-26.55ZM152.527,-29.846L192.261,-29.846L182.007,-84.717L152.527,-29.846Z" style="fill:rgb(255,51,102);fill-rule:nonzero;"/>
            <path d="M278.503,-27.161C276.062,-18.372 271.759,-11.444 265.594,-6.378C259.43,-1.312 251.953,1.221 243.164,1.221C237.996,1.221 233.49,0 229.645,-2.441C225.8,-4.883 222.85,-8.423 220.795,-13.062C218.74,-17.7 217.712,-22.888 217.712,-28.625C217.672,-31.84 217.916,-35.014 218.445,-38.147L220.459,-50.049C222.453,-61.808 226.868,-71.421 233.704,-78.888C240.54,-86.355 248.759,-90.088 258.362,-90.088C266.866,-90.088 273.458,-87.575 278.137,-82.55C282.817,-77.525 284.953,-70.597 284.546,-61.768L281.311,-61.768C281.637,-69.621 279.806,-75.755 275.818,-80.17C271.83,-84.585 266.032,-86.792 258.423,-86.792C253.052,-86.792 248.016,-85.368 243.317,-82.52C238.617,-79.671 234.517,-75.429 231.018,-69.794C227.519,-64.158 225.138,-57.739 223.877,-50.537L221.619,-37.781C221.171,-35.095 220.947,-32.369 220.947,-29.602C220.866,-24.272 221.69,-19.48 223.419,-15.228C225.149,-10.976 227.702,-7.721 231.079,-5.463C234.456,-3.204 238.464,-2.075 243.103,-2.075C251.078,-2.075 257.813,-4.272 263.306,-8.667C268.799,-13.062 272.766,-19.226 275.208,-27.161L278.503,-27.161Z" style="fill:rgb(255,51,102);fill-rule:nonzero;"/>
            <path d="M348.511,-44.067L305.237,-44.067L298.157,-3.296L347.351,-3.296L346.863,0L294.25,0L309.692,-88.867L362.183,-88.867L361.694,-85.571L312.439,-85.571L305.786,-47.363L348.938,-47.363L348.511,-44.067Z" style="fill:rgb(255,51,102);fill-rule:nonzero;"/>
        </g>
    </g>
</svg>
